<?xml version="1.0" encoding="utf-8"?>
<!-- Generator: Adobe Illustrator 24.0.2, SVG Export Plug-In . SVG Version: 6.00 Build 0)  -->
<svg version="1.1" id="Outline_00000068660976892517701140000011396894017443136155_"
	 xmlns="http://www.w3.org/2000/svg" xmlns:xlink="http://www.w3.org/1999/xlink" x="0px" y="0px" viewBox="0 0 48 48"
	 enable-background="new 0 0 48 48" xml:space="preserve">
<g>
	<path d="M18.25,18.5c0,0.41406,0.33594,0.75,0.75,0.75s0.75-0.33594,0.75-0.75c0-2.06787,1.68213-3.75,3.75-3.75
		s3.75,1.68213,3.75,3.75c0,0.41406,0.33594,0.75,0.75,0.75s0.75-0.33594,0.75-0.75c0-2.89502-2.35498-5.25-5.25-5.25
		S18.25,15.60498,18.25,18.5z"/>
	<path d="M32.5,24.25c-0.26831,0-0.52222,0.05505-0.76099,0.1416C31.68109,23.20209,30.70361,22.25,29.5,22.25
		c-0.36017,0-0.69604,0.09296-0.99823,0.24402C28.13092,21.75964,27.37738,21.25,26.5,21.25
		c-0.26428,0-0.51428,0.05414-0.75,0.13818V18.5c0-1.24072-1.00928-2.25-2.25-2.25s-2.25,1.00928-2.25,2.25v5.82587
		c-2.26166,0.36261-4,2.31183-4,4.67413c0,2.08691,0.39307,4.12744,1.16797,6.06396c0,0,0.88411,2.21028,0.88574,2.21435
		c0.14062,0.35155,0.60255,0.5672,0.97461,0.41797c0.38477-0.15381,0.57178-0.59033,0.41797-0.97461l-0.88574-2.21484
		C19.10693,32.74805,18.75,30.89551,18.75,29c0-1.53278,1.06995-2.81342,2.5-3.15405V28c0,0.41406,0.33594,0.75,0.75,0.75
		s0.75-0.33594,0.75-0.75v-9.5c0-0.41357,0.33643-0.75,0.75-0.75s0.75,0.33643,0.75,0.75V26c0,0.41406,0.33594,0.75,0.75,0.75
		s0.75-0.33594,0.75-0.75v-2.5c0-0.41357,0.33643-0.75,0.75-0.75s0.75,0.33643,0.75,0.75V26c0,0.41406,0.33594,0.75,0.75,0.75
		s0.75-0.33594,0.75-0.75v-1.5c0-0.41357,0.33643-0.75,0.75-0.75s0.75,0.33643,0.75,0.75V28c0,0.41406,0.33594,0.75,0.75,0.75
		s0.75-0.33594,0.75-0.75v-1.5c0-0.41357,0.33643-0.75,0.75-0.75s0.75,0.33643,0.75,0.75v3.7666
		c0,1.05469-0.19824,2.08594-0.58984,3.06396l-1.35645,3.39063c-0.1538,0.38474,0.03318,0.82124,0.41742,0.97507
		c0.36315,0.14539,0.82253-0.03589,0.97516-0.41745l1.35645-3.39063c0.46289-1.15674,0.69727-2.375,0.69727-3.62158V26.5
		C34.75,25.25928,33.74072,24.25,32.5,24.25z"/>
	<path d="M16,37.25c-0.68945,0-1.25-0.56055-1.25-1.25V12c0-0.68945,0.56055-1.25,1.25-1.25h14c0.68945,0,1.25,0.56055,1.25,1.25
		v8.75977c0,0.41406,0.33594,0.75,0.75,0.75s0.75-0.33594,0.75-0.75V12c0-1.5166-1.2334-2.75-2.75-2.75H16
		c-1.5166,0-2.75,1.2334-2.75,2.75v24c0,1.5166,1.2334,2.75,2.75,2.75c0.41406,0,0.75-0.33594,0.75-0.75S16.41406,37.25,16,37.25z"
		/>
</g>
</svg>
